<svg width="26" height="26" viewBox="0 0 26 26" fill="none" xmlns="http://www.w3.org/2000/svg">
<path d="M2.6 5.2H0V23.4C0 24.843 1.17 26 2.6 26H20.8V23.4H2.6V5.2ZM21.71 6.955L20.41 8.255L17.745 5.59L19.045 4.29C19.318 4.004 19.773 4.004 20.046 4.29L21.71 5.954C21.996 6.227 21.996 6.682 21.71 6.955ZM9.1 14.222L16.978 6.344L19.656 9.022L11.778 16.9H9.1V14.222ZM23.4 2.6V18.2H7.8V2.6H23.4ZM23.4 0H7.8C6.37 0 5.2 1.17 5.2 2.6V18.2C5.2 19.63 6.37 20.8 7.8 20.8H23.4C24.83 20.8 26 19.63 26 18.2V2.6C26 1.17 24.83 0 23.4 0Z" fill="black" fill-opacity="0.8"/>
</svg>
