<svg width="27" height="34" viewBox="0 0 27 34" fill="none" xmlns="http://www.w3.org/2000/svg">
<path id="Vector" d="M11.8125 28.9H15.1875V21.8025L17.8875 24.5225L20.25 22.1L13.5 15.3L6.75 22.1L9.15469 24.48L11.8125 21.8025V28.9ZM3.375 34C2.44688 34 1.65234 33.6671 0.991406 33.0013C0.330469 32.3354 0 31.535 0 30.6V3.4C0 2.465 0.330469 1.66458 0.991406 0.99875C1.65234 0.332917 2.44688 0 3.375 0H16.875L27 10.2V30.6C27 31.535 26.6695 32.3354 26.0086 33.0013C25.3477 33.6671 24.5531 34 23.625 34H3.375ZM15.1875 11.9V3.4H3.375V30.6H23.625V11.9H15.1875Z" fill="#785FEE"/>
</svg>
